<?xml version="1.0" encoding="UTF-8"?>
<svg width="129px" height="85px" viewBox="0 0 129 85" version="1.1" xmlns="http://www.w3.org/2000/svg" xmlns:xlink="http://www.w3.org/1999/xlink">
    <title>gibson__1_</title>
    <g id="Loyalty-program-v3" stroke="none" stroke-width="1" fill="none" fill-rule="evenodd">
        <g id="gibson__1_" fill="#FFFFFF" fill-rule="nonzero">
            <rect id="bg" opacity="0" x="0" y="0" width="129" height="85"></rect>
            <g id="Gibson_Black" transform="translate(25.000000, 23.000000)">
                <path d="M78.63958,23.2105619 L78.63958,24.817501 C78.63958,24.817501 78.721753,25.9040109 77.4891577,25.9679233 C77.3795937,25.9861839 76.1561287,25.9496626 76.2017804,24.7718493 L76.2017804,1.10601958 C76.2017804,1.10601958 76.1104771,0.0012489772 75.0057065,0.0012489772 C75.0057065,0.0012489772 73.9922392,-0.0900543782 73.2070304,1.28862629 C72.4218215,2.66730695 72.1479114,3.72642588 71.0887925,3.72642588 C71.0887925,3.72642588 69.8288062,3.87251125 69.8470669,2.75861031 L69.8470669,1.56253635 L65.8845013,2.84991367 L65.8845013,7.4059511 C65.8845013,8.53811271 65.0353801,14.1532691 63.538005,14.1715297 C63.4375713,14.1897904 62.0223693,14.3815275 61.9767176,12.9754558 C61.9767176,12.9754558 61.9767176,8.15463861 61.9767176,7.67986117 C62.013239,6.96769499 61.4562885,4.83119648 59.6758731,5.05945487 L58.068934,5.37901661 L58.068934,16.846718 C58.068934,17.2028011 57.9411093,18.8919132 56.0419995,18.9649559 C55.8685232,18.9923469 54.0150651,18.9193042 54.0150651,17.1206281 L54.0150651,9.66114398 C54.0150651,9.66114398 53.9237617,8.32811499 55.2567907,8.23681163 L55.3024424,6.3011805 C55.3024424,6.3011805 51.2485734,7.22334439 49.3585939,10.6289595 C49.1303355,10.8754786 48.6646884,11.0854763 48.3451267,11.0854763 C48.1533896,11.0854763 47.2403561,11.0306943 47.1947044,10.1176608 C47.1947044,9.8985327 47.1947044,8.87593512 47.1947044,8.87593512 L40.5204291,11.0854763 C40.5204291,11.0854763 37.9000228,11.9163369 37.9000228,14.5823948 C37.9000228,14.5823948 37.9000228,16.4267226 39.0504451,17.3032348 L43.6977859,20.8001533 C43.6977859,20.8001533 44.4921251,21.3662341 44.108651,22.315789 C44.053869,22.4801351 43.5151792,23.5757753 42.4012782,23.6031663 C42.1821502,23.6305574 41.4791144,23.6031663 41.0682493,22.5440474 C41.0682493,22.5440474 40.7030358,21.1653668 39.5069619,21.5762319 C39.5069619,21.5762319 37.2700297,22.3614407 37.114814,22.4070924 C36.9595983,22.4527441 35.6448299,22.6810025 35.6448299,21.1197151 L35.6448299,15.9610755 C35.6448299,15.5776014 35.1700525,13.3954512 33.3439854,13.4776242 C33.3439854,13.4776242 32.2848665,13.5689276 31.3627026,13.988923 L31.3627026,16.2441159 C31.3627026,16.2441159 32.6044282,16.0615092 32.6044282,17.6684482 L32.6044282,25.4474941 C32.6044282,25.4474941 32.6592102,27.3922556 30.6231454,27.4287769 C28.924903,27.4105163 28.6418626,25.7853165 28.6418626,25.5844492 C28.6236019,24.4796786 28.6875143,0.759066827 28.6875143,0.759066827 L24.624515,2.34774521 L24.6701666,19.3392997 C24.6701666,19.3392997 24.4236476,24.8631527 22.8714905,26.9813905 C22.4149738,27.593123 20.844556,27.593123 20.707601,26.2418333 L20.707601,17.4949719 L16.7450354,18.7366975 L16.7450354,22.2792677 C16.7450354,22.8727395 16.1972152,29.9122282 14.1702808,29.8026642 C13.9146314,29.8117945 13.3668112,29.5287541 13.3668112,28.3235498 L13.3942022,19.7501647 L9.51380963,21.1288454 C9.51380963,21.1288454 9.47728829,25.8400986 9.46815795,26.1048783 C9.34946359,27.620514 9.55946131,34.4408746 5.04907555,34.4408746 C5.04907555,34.4408746 3.94430495,34.4865263 3.94430495,33.1534973 L3.94430495,14.0893567 C3.94430495,14.0893567 4.07212965,11.9345975 5.74298105,11.18591 C5.74298105,11.18591 7.4503538,10.5741775 7.81556722,10.4463528 C8.18078064,10.3185281 9.56859165,10.4463528 9.56859165,11.9619885 L9.56859165,16.8010664 L14.4533212,15.2854307 L14.4533212,9.71592599 C14.4533212,7.82594653 12.5816024,6.10031312 11.1390094,6.53856922 C9.69641634,6.97682533 3.65213422,8.82115311 3.40561516,8.93071714 C3.1590961,9.04028116 0,10.2637461 0,13.7241433 L0.0456516777,36.1938991 C0.0456516777,36.1938991 0.182606711,38.4490919 2.52910294,38.4034403 C2.52910294,38.4034403 3.22300845,38.4034403 4.32777905,37.8008381 C4.32777905,37.8008381 7.04861904,36.3125934 7.23122575,36.2395507 C7.41383246,36.1573777 8.89294682,35.6826003 8.93859849,37.7095348 L8.93859849,50.3276585 L13.4033326,48.9033261 L13.4033326,37.7186651 C13.4033326,36.9608472 13.9511527,33.199149 15.8867838,31.6378616 C16.0054782,31.5374279 16.9367724,30.9348258 17.7767633,32.0487267 C18.6076238,33.171758 19.3380507,33.336104 19.3380507,33.336104 C19.3380507,33.336104 20.2419539,33.7378388 21.0454234,32.3682885 C21.0910751,32.2769851 22.4971468,29.9396192 22.5610591,29.8391855 C22.6249715,29.7296215 22.8349692,29.4191901 23.4375713,29.4739721 C23.4375713,29.4739721 24.9075554,29.3826687 24.679297,31.4552549 C24.679297,31.4552549 31.5270486,29.3735384 32.0931294,29.063107 C32.1844328,29.0265857 34.7957087,27.9765971 36.3752568,25.5661885 C36.3752568,25.5661885 36.8409039,24.872283 37.4343757,24.9179347 C37.5439397,24.9179347 38.9956631,25.009238 38.584798,26.9448692 C38.584798,26.9448692 45.2225519,24.9179347 45.5877654,24.735328 C46.3821045,24.4066359 48.4455604,23.5575147 48.3999087,21.1471061 C48.4272997,20.4349399 48.2264323,19.1840839 47.2038347,18.2893111 C47.1490527,18.2345291 42.638667,14.9110869 42.6021456,14.8836959 C42.2095412,14.5458735 42.0086738,13.797186 42.6477973,12.9937165 C42.6477973,12.9937165 43.1499658,12.2541593 43.8895229,12.2998109 C43.8895229,12.2998109 44.4556037,12.2724199 45.3138553,13.4045815 C45.4325496,13.5232759 46.0716731,14.3723971 46.5099292,14.4637005 C46.5099292,14.4637005 46.884273,14.5823948 47.3407898,14.1441387 C48.463821,13.1671928 49.0481625,13.1306715 49.0481625,13.1306715 C49.0481625,13.1306715 50.6642319,12.6741547 50.6642319,14.5093521 L50.6642319,18.3806144 C50.6642319,19.2297356 51.7781328,21.8227509 54.3072358,21.6949262 C54.3072358,21.6949262 55.183748,21.6036229 56.0146085,21.3753645 L58.7354485,20.4988523 C58.7354485,20.4988523 62.150194,19.4762547 63.3371376,17.2758438 C63.3371376,17.2758438 63.9032184,16.1710732 64.7158183,16.1710732 C64.7158183,16.1710732 66.149281,15.9884665 66.0031956,18.152356 L69.8744579,16.8649787 L69.8744579,7.50638479 C69.8744579,7.50638479 69.7648939,6.40161419 71.0705318,6.40161419 C72.3579092,6.40161419 72.3122575,7.41508144 72.3122575,7.41508144 L72.3122575,26.7531321 C72.3122575,27.3009522 72.8783383,28.9900643 74.7500571,28.9626733 C74.7500571,28.9626733 80,28.9170216 80,24.4522876 L80,22.7449148 L78.63958,23.2105619 Z" id="Path"></path>
                <path d="M18.6715362,11.9802492 C20.1141292,11.9802492 21.2736818,10.8115663 21.2736818,9.37810358 C21.2736818,7.93551056 20.1049989,6.77595795 18.6715362,6.77595795 C17.2289432,6.77595795 16.0693906,7.9446409 16.0693906,9.37810358 C16.0693906,10.8115663 17.2380735,11.9802492 18.6715362,11.9802492 Z" id="Path"></path>
                <path d="M77.9821958,2.72208897 C78.6578407,2.72208897 79.2513125,2.23818118 79.2513125,1.48036333 C79.2513125,0.73167582 78.6578407,0.238637701 77.9821958,0.238637701 C77.306551,0.238637701 76.7130792,0.722545485 76.7130792,1.48036333 C76.7130792,2.23818118 77.3156814,2.72208897 77.9821958,2.72208897 Z M77.9821958,0.494287096 C78.502625,0.494287096 78.9226204,0.905152196 78.9226204,1.471233 C78.9226204,2.04644414 78.502625,2.4481789 77.9821958,2.4481789 C77.4526364,2.4481789 77.0417713,2.0373138 77.0417713,1.471233 C77.0417713,0.905152196 77.4617667,0.494287096 77.9821958,0.494287096 Z" id="Shape"></path>
                <path d="M77.7630678,1.58079703 L77.9365442,1.58079703 L78.2469756,2.17426884 L78.5482766,2.17426884 L78.2104542,1.57166669 C78.3930609,1.55340602 78.5482766,1.45297233 78.5482766,1.19732293 C78.5482766,0.89602186 78.3565396,0.786457834 78.0095869,0.786457834 L77.4891577,0.786457834 L77.4891577,2.17426884 L77.7630678,2.17426884 L77.7630678,1.58079703 Z M77.7630678,0.996455551 L77.9913262,0.996455551 C78.1921936,0.996455551 78.2743666,1.04210723 78.2743666,1.16993193 C78.2743666,1.29775662 78.2013239,1.36166897 78.0004565,1.36166897 L77.7630678,1.36166897 L77.7630678,0.996455551 Z" id="Shape"></path>
            </g>
        </g>
    </g>
</svg>